<?xml version="1.0" encoding="utf-8"?>
<!-- Generator: Adobe Illustrator 24.0.2, SVG Export Plug-In . SVG Version: 6.00 Build 0)  -->
<svg version="1.1" id="logo" xmlns="http://www.w3.org/2000/svg" xmlns:xlink="http://www.w3.org/1999/xlink" x="0px" y="0px"
	 viewBox="0 0 100 100" style="enable-background:new 0 0 100 100;" xml:space="preserve">
<style type="text/css">
	.st0{fill:#1D1A05;}
</style>
<g>
	<path class="st0" d="M67.49,76.15H57.26c0.55-1.82,0.92-5.31,1.12-10.49c0.19-5.17,0.25-12.05,0.18-20.65H17.17
		c0,17.55,0.43,27.93,1.29,31.13H8c0.86-2.77,1.33-7.43,1.41-13.98c0-13.4,0-23.81,0-31.24c0-7.43-0.04-11.98-0.12-13.65
		c-0.08-1.67-0.22-3.24-0.41-4.7C8.69,11.12,8.39,9.7,8,8.31h10.46c-1.33,4.52-1.8,14.38-1.41,29.6h41.5
		c0.08-8.16,0.02-14.69-0.18-19.61c-0.2-4.92-0.57-8.25-1.12-10h10.11c-0.39,1.38-0.69,3.22-0.88,5.52
		c-0.2,2.29-0.33,5.08-0.41,8.36v20.1C66.08,61.51,66.55,72.8,67.49,76.15z"/>
</g>
<path class="st0" d="M33.81,32.64c0.03,0.68,0.06,1.84,0.08,3.47h7.67c0.21-5.78,0.68-9.92,1.42-12.42H32.51
	c0.39,1.38,0.69,2.8,0.88,4.26C33.59,29.4,33.73,30.97,33.81,32.64z"/>
<path class="st0" d="M56.57,60.39c0.04-2.16,0.06-4.53,0.07-7.1H41.56c-0.06-2.27-0.1-4.43-0.12-6.46h-7.52c0,7.39,0,17.63,0,30.71
	c-0.08,6.55-0.55,11.22-1.41,13.98h10.46c-0.86-3.2-1.29-13.58-1.29-31.13H56.57z"/>
<path class="st0" d="M81.77,91.52H92c-0.94-3.35-1.41-14.64-1.41-33.86v-20.1c0.08-3.28,0.21-6.06,0.41-8.36
	c0.19-2.29,0.49-4.13,0.88-5.52H81.77c0.55,1.75,0.92,5.08,1.12,10c0.19,4.92,0.25,11.45,0.18,19.61H68.09
	c0.03,2.65,0.08,5.01,0.13,7.1h14.84c0.08,8.59,0.02,15.48-0.18,20.65C82.69,86.2,82.32,89.7,81.77,91.52z"/>
</svg>
