<svg id="Layer_1" data-name="Layer 1" xmlns="http://www.w3.org/2000/svg" viewBox="0 0 502.66 533.88" style=""><defs><style>.cls-1{fill:none;stroke:#89d0c2;stroke-width:5px;}</style></defs><title>hh-logo</title><path class="cls-1 FxokXrSH_0" d="M400.92,598.52H340.51q4.86-17.34,6.6-66.66t1-131.23H103.75q0,167.34,7.63,197.89H49.59q7.63-26.38,8.33-88.87V311.07q0-70.83-.69-86.8T54.8,194.42a208.65,208.65,0,0,0-5.21-27.08h61.79q-11.8,43.07-8.33,188.16h245.1q.69-77.74-1-124.63t-6.6-63.53h59.72q-3.48,13.2-5.21,35.06t-2.43,53.12V383.28Q392.59,566.58,400.92,598.52Z" transform="translate(-46.26 -164.84)"></path><path class="cls-1 FxokXrSH_1" d="M202,322q.28,6.5.45,22h45.32q1.86-55.11,8.39-79H194.36a208.63,208.63,0,0,1,5.2,27.08Q201.3,306,202,322Z" transform="translate(-46.26 -164.84)"></path><path class="cls-1 FxokXrSH_2" d="M336.45,498.33q.33-20.58.39-45.13h-89q-.52-21.68-.7-41.07H202.69V607.34q-.7,62.49-8.33,88.88h61.79q-7.65-30.54-7.63-197.89Z" transform="translate(-46.26 -164.84)"></path><path class="cls-1 FxokXrSH_3" d="M485.28,696.22h60.41q-8.34-31.94-8.33-215.24V353.22Q538,322,539.79,300.1T545,265H485.28q4.86,16.66,6.6,63.53t1,124.63H404.45c.2,16.86.47,31.84.8,45.13h87.67q.69,81.95-1,131.23T485.28,696.22Z" transform="translate(-46.26 -164.84)"></path><style data-made-with="vivus-instant">.FxokXrSH_0{stroke-dasharray:2372 2374;stroke-dashoffset:2373;animation:FxokXrSH_draw 1666ms linear 0ms forwards;}.FxokXrSH_1{stroke-dasharray:267 269;stroke-dashoffset:268;animation:FxokXrSH_draw 1666ms linear 277ms forwards;}.FxokXrSH_2{stroke-dasharray:853 855;stroke-dashoffset:854;animation:FxokXrSH_draw 1666ms linear 555ms forwards;}.FxokXrSH_3{stroke-dasharray:1161 1163;stroke-dashoffset:1162;animation:FxokXrSH_draw 1666ms linear 833ms forwards;}@keyframes FxokXrSH_draw{100%{stroke-dashoffset:0;}}@keyframes FxokXrSH_fade{0%{stroke-opacity:1;}94.02985074626866%{stroke-opacity:1;}100%{stroke-opacity:0;}}</style></svg>